# xmcd
#
# Track frame offsets:
#	150
#	14280
#	26498
#	43240
#	56123
#	66098
#	79495
#	96220
#	120295
#	142180
#	168077
#	179960
#	188946
#
# Disc length: 2691 seconds
#
# Revision: 1
# Processed by: cddbd v1.5.2PL0 Copyright (c) Steve Scherf et al.
# Submitted via: audiograbber 1.83.01
#
DISCID=bb0a810d
DTITLE=Wendy DeWitt - Take a Little Walk With Me
DYEAR=2007
DGENRE=Blues
TTITLE0=Chicago Breakdown
TTITLE1=You're Holding Back On Me
TTITLE2=Take a Little Walk With Me
TTITLE3=Tribute to Otis Spann
TTITLE4=Dollar Boogie
TTITLE5=Going to Chicago
TTITLE6=Mr. Charles
TTITLE7=Healdsburg Blues
TTITLE8=Evil Ways
TTITLE9=Mother Earth
TTITLE10=Sunshine Boogie
TTITLE11=Spann and Stomp
TTITLE12=Moving Cross The Bay
EXTD=
EXTT0=
EXTT1=
EXTT2=
EXTT3=
EXTT4=
EXTT5=
EXTT6=
EXTT7=
EXTT8=
EXTT9=
EXTT10=
EXTT11=
EXTT12=
PLAYORDER=
